<mxfile host="app.diagrams.net" modified="2024-06-19T14:11:47.358Z" agent="Mozilla/5.0 (Windows NT 10.0; Win64; x64) AppleWebKit/537.36 (KHTML, like Gecko) Chrome/126.0.0.0 Safari/537.36 Edg/126.0.0.0" etag="PXbtRH8b_hxLoslIyxgu" version="24.5.5" type="github">
  <diagram name="第 1 页" id="ItVehEv1kVIxlN1hyoNc">
    <mxGraphModel dx="956" dy="530" grid="1" gridSize="10" guides="1" tooltips="1" connect="1" arrows="1" fold="1" page="1" pageScale="1" pageWidth="827" pageHeight="1169" math="0" shadow="0">
      <root>
        <mxCell id="0" />
        <mxCell id="1" parent="0" />
        <mxCell id="WwAJ-ztaGhPFFEOnefpK-1" value="&lt;font style=&quot;font-size: 14px;&quot;&gt;待审核&lt;/font&gt;" style="rounded=0;whiteSpace=wrap;html=1;" vertex="1" parent="1">
          <mxGeometry x="130" y="240" width="70" height="30" as="geometry" />
        </mxCell>
        <mxCell id="WwAJ-ztaGhPFFEOnefpK-2" value="&lt;font style=&quot;font-size: 14px;&quot;&gt;待审核&lt;/font&gt;" style="rounded=0;whiteSpace=wrap;html=1;" vertex="1" parent="1">
          <mxGeometry x="240" y="240" width="70" height="30" as="geometry" />
        </mxCell>
      </root>
    </mxGraphModel>
  </diagram>
</mxfile>
